<?xml version="1.0" standalone="no"?>
<!DOCTYPE svg PUBLIC "-//W3C//DTD SVG 20010904//EN"
 "http://www.w3.org/TR/2001/REC-SVG-20010904/DTD/svg10.dtd">
<svg version="1.0" xmlns="http://www.w3.org/2000/svg"
 width="1895.000000pt" height="918.000000pt" viewBox="0 0 1895.000000 918.000000"
 preserveAspectRatio="xMidYMid meet">

<g transform="translate(0.000000,918.000000) scale(0.100000,-0.100000)"
fill="#000000" stroke="none">
<path d="M0 4590 l0 -4590 9475 0 9475 0 0 4590 0 4590 -9475 0 -9475 0 0
-4590z m18132 4393 c16 -15 18 -36 18 -241 0 -196 -2 -228 -17 -244 -15 -17
-38 -18 -296 -18 -247 0 -283 2 -299 17 -16 15 -18 36 -18 241 0 196 2 228 17
244 15 17 38 18 296 18 247 0 283 -2 299 -17z m-17157 -98 c23 -23 25 -31 25
-130 0 -99 -2 -107 -25 -130 -20 -21 -34 -25 -80 -25 l-55 0 0 155 0 155 55 0
c46 0 60 -4 80 -25z m96 -107 c0 -150 8 -145 34 20 l18 113 41 -3 41 -3 21
-125 22 -125 1 128 1 127 60 0 c76 0 100 -20 100 -83 0 -24 -5 -48 -12 -55 -8
-8 -8 -15 0 -24 6 -8 13 -41 15 -73 2 -33 4 6 5 88 l2 147 35 0 35 0 0 -155 0
-155 -69 0 c-78 0 -81 3 -81 76 0 24 -4 44 -10 44 -6 0 -10 -27 -10 -60 l0
-61 -67 3 c-66 3 -68 4 -71 31 -4 37 -36 33 -40 -6 -3 -26 -5 -27 -68 -27
l-64 0 0 155 0 155 30 0 30 0 1 -132z m568 106 c13 -16 21 -41 21 -63 l0 -36
60 0 60 0 0 63 0 62 44 0 43 0 10 -62 9 -63 8 50 c11 74 12 75 56 75 l40 0 0
-155 0 -155 -30 0 c-27 0 -30 3 -31 33 l-1 32 -7 -30 c-5 -25 -11 -30 -36 -30
-25 0 -31 5 -36 30 l-7 30 -1 -32 c-1 -30 -4 -33 -31 -33 l-30 0 0 63 0 62
-60 0 -60 0 0 -36 c0 -54 -32 -89 -81 -89 -68 0 -79 21 -79 153 0 138 9 157
75 157 35 0 48 -5 64 -26z m431 -11 l1 -38 20 38 c17 32 24 37 54 37 l35 0
-29 -59 c-29 -57 -30 -59 -15 -107 8 -27 21 -71 29 -97 l14 -48 -36 3 c-34 3
-37 6 -52 53 l-16 50 -3 -52 -3 -53 -35 0 -34 0 0 155 0 155 35 0 c34 0 35 -1
35 -37z m-1553 -690 c-2 -16 -4 -5 -4 22 0 28 2 40 4 28 2 -13 2 -35 0 -50z
m241 -100 c-1 -93 -3 -149 -5 -125 -4 41 -5 42 -41 44 l-37 1 38 4 37 4 0 56
0 55 -37 -5 -38 -5 38 11 37 11 0 58 c0 32 2 58 5 58 3 0 4 -75 3 -167z m5942
147 c14 -11 20 -20 14 -20 -7 0 -22 9 -35 20 -31 25 -12 26 21 0z m666 3 c13
-17 15 -17 29 1 17 22 29 17 19 -7 -6 -18 -31 -30 -45 -21 -12 7 -31 44 -23
44 4 0 13 -8 20 -17z m-756 -13 c0 -5 -5 -10 -11 -10 -5 0 -7 5 -4 10 3 6 8
10 11 10 2 0 4 -4 4 -10z m678 -37 c-21 -2 -55 -2 -75 0 -21 2 -4 4 37 4 41 0
58 -2 38 -4z m-502 -104 c14 -28 23 -53 20 -56 -4 -5 -56 89 -56 102 0 15 12
-1 36 -46z m344 41 c0 -5 -2 -10 -4 -10 -3 0 -8 5 -11 10 -3 6 -1 10 4 10 6 0
11 -4 11 -10z m173 -45 c15 -30 23 -55 19 -55 -4 0 -20 25 -35 55 -15 30 -23
55 -19 55 4 0 20 -25 35 -55z m-6795 38 c-15 -2 -42 -2 -60 0 -18 2 -6 4 27 4
33 0 48 -2 33 -4z m120 0 c-15 -2 -42 -2 -60 0 -18 2 -6 4 27 4 33 0 48 -2 33
-4z m5967 -33 c23 -50 12 -65 -11 -16 -21 42 -31 45 -40 11 -3 -13 -13 -30
-22 -37 -14 -11 -15 -10 -8 7 4 11 13 32 18 48 15 40 42 34 63 -13z m280 1 c7
-12 -12 -24 -25 -16 -11 7 -4 25 10 25 5 0 11 -4 15 -9z m-6478 -33 c-3 -7 -5
-2 -5 12 0 14 2 19 5 13 2 -7 2 -19 0 -25z m6561 25 c-10 -2 -28 -2 -40 0 -13
2 -5 4 17 4 22 1 32 -1 23 -4z m87 -22 c3 -5 1 -12 -5 -16 -5 -3 -10 1 -10 9
0 18 6 21 15 7z m-6515 -51 c0 -5 -25 -10 -56 -10 -34 0 -53 4 -49 10 3 6 28
10 56 10 27 0 49 -4 49 -10z m120 0 c0 -5 -25 -10 -55 -10 -30 0 -55 5 -55 10
0 6 25 10 55 10 30 0 55 -4 55 -10z m6217 -127 c-2 -21 -4 -6 -4 32 0 39 2 55
4 38 2 -18 2 -50 0 -70z m-6347 -16 l0 -103 -42 6 -43 5 38 3 37 3 0 95 c0 52
2 94 5 94 3 0 5 -46 5 -103z m6176 52 c14 -28 23 -53 20 -56 -4 -5 -56 89 -56
102 0 15 12 -1 36 -46z m264 42 c0 -6 -4 -13 -10 -16 -5 -3 -10 1 -10 9 0 9 5
16 10 16 6 0 10 -4 10 -9z m168 -43 c29 -67 21 -74 -12 -9 -28 54 -30 61 -18
61 4 0 17 -24 30 -52z m87 -8 c-14 -29 -29 -50 -31 -47 -3 3 7 28 21 57 14 29
29 50 31 47 3 -3 -7 -28 -21 -57z m171 9 c14 -28 23 -53 20 -56 -4 -5 -56 89
-56 102 0 15 12 -1 36 -46z m-926 2 c0 -26 -5 -41 -16 -45 -25 -10 -41 -6 -21
5 20 12 23 65 5 72 -7 3 -3 6 10 6 19 1 22 -4 22 -38z m-5592 -28 c-15 -2 -42
-2 -60 0 -18 2 -6 4 27 4 33 0 48 -2 33 -4z m5922 -13 c0 -5 -4 -10 -10 -10
-5 0 -10 5 -10 10 0 6 5 10 10 10 6 0 10 -4 10 -10z m-6162 -107 c-15 -2 -42
-2 -60 0 -18 2 -6 4 27 4 33 0 48 -2 33 -4z m120 0 c-15 -2 -42 -2 -60 0 -18
2 -6 4 27 4 33 0 48 -2 33 -4z m120 0 c-15 -2 -42 -2 -60 0 -18 2 -6 4 27 4
33 0 48 -2 33 -4z m-461 -245 c-1 -40 -3 -10 -3 67 0 77 1 110 3 73 2 -37 2
-100 0 -140z m353 -108 c0 -5 -19 -9 -42 -9 l-43 2 40 7 c22 4 41 8 43 9 1 0
2 -3 2 -9z m-242 -7 c-15 -2 -42 -2 -60 0 -18 2 -6 4 27 4 33 0 48 -2 33 -4z
m110 0 c-16 -2 -40 -2 -55 0 -16 2 -3 4 27 4 30 0 43 -2 28 -4z m-101 -155
c-2 -24 -4 -5 -4 42 0 47 2 66 4 43 2 -24 2 -62 0 -85z m248 -78 c4 -6 -15 -9
-52 -8 l-58 1 45 7 c25 4 48 8 52 8 4 1 10 -2 13 -8z m-137 -7 c-15 -2 -42 -2
-60 0 -18 2 -6 4 27 4 33 0 48 -2 33 -4z m-111 -155 c-2 -24 -4 -5 -4 42 0 47
2 66 4 43 2 -24 2 -62 0 -85z m253 42 c0 -5 -25 -10 -55 -10 -30 0 -55 5 -55
10 0 6 25 10 55 10 30 0 55 -4 55 -10z m-12 -417 c-1 -208 -3 -361 -5 -340 -4
35 -6 37 -41 39 l-37 1 38 4 37 4 0 55 0 54 -37 2 -38 1 38 4 37 4 0 55 0 54
-42 2 -43 1 43 4 42 4 0 55 0 54 -42 2 -43 1 43 4 43 4 -3 112 -3 112 -40 6
-40 6 43 2 c41 1 42 2 42 36 0 19 2 35 5 35 3 0 4 -170 3 -377z m-130 300
c-15 -2 -42 -2 -60 0 -18 2 -6 4 27 4 33 0 48 -2 33 -4z m-110 -180 c-1 -76
-3 -121 -5 -100 -4 35 -6 37 -41 39 l-37 1 38 4 37 4 0 95 c0 52 2 94 5 94 3
0 4 -62 3 -137z m110 -60 c-15 -2 -42 -2 -60 0 -18 2 -6 4 27 4 33 0 48 -2 33
-4z m-231 -75 c-3 -7 -5 -2 -5 12 0 14 2 19 5 13 2 -7 2 -19 0 -25z m111 -45
c-16 -2 -40 -2 -55 0 -16 2 -3 4 27 4 30 0 43 -2 28 -4z m120 0 c-15 -2 -42
-2 -60 0 -18 2 -6 4 27 4 33 0 48 -2 33 -4z m0 -120 c-15 -2 -42 -2 -60 0 -18
2 -6 4 27 4 33 0 48 -2 33 -4z m3679 -121 c51 -27 90 -76 109 -138 21 -71 20
-610 -1 -682 -37 -122 -161 -184 -305 -151 -68 15 -116 53 -147 118 l-28 56 0
321 0 320 30 59 c33 63 60 88 121 111 55 20 167 13 221 -14z m-2132 -4 c50
-16 108 -75 123 -126 8 -27 12 -141 12 -353 0 -352 -2 -364 -73 -426 -51 -45
-91 -53 -264 -53 l-153 0 0 483 c0 266 3 487 8 491 11 13 302 -1 347 -16z
m383 -470 l2 -488 -100 0 -100 0 0 483 c0 266 3 487 7 491 4 4 48 5 98 4 l90
-3 3 -487z m425 452 c4 -19 41 -237 81 -485 l72 -450 -94 -3 c-52 -1 -97 -1
-99 2 -3 2 -10 42 -16 88 l-12 83 -61 3 c-70 3 -65 10 -80 -115 l-7 -63 -93 0
c-52 0 -94 3 -94 8 0 12 151 946 155 960 4 9 33 12 122 10 l118 -3 8 -35z
m466 30 c123 -17 177 -82 188 -223 7 -89 -10 -173 -42 -218 -25 -32 -25 -33
-6 -53 36 -38 44 -79 51 -261 3 -99 10 -188 14 -198 8 -16 1 -18 -95 -15 -125
4 -117 -10 -118 204 -1 165 -5 180 -58 190 l-33 7 0 -202 0 -201 -100 0 -100
0 0 483 c0 266 3 487 7 490 9 10 218 8 292 -3z m439 -482 l2 -488 -100 0 -100
0 0 483 c0 266 3 487 7 491 4 4 48 5 98 4 l90 -3 3 -487z m1206 475 c2 -10 19
-125 37 -255 18 -130 34 -236 35 -235 1 1 16 106 33 232 18 127 36 240 41 253
9 21 15 22 129 22 l120 0 3 -337 c2 -186 2 -407 0 -490 l-3 -153 -90 0 -89 0
0 187 c0 102 -2 184 -6 181 -3 -3 -17 -86 -32 -184 l-27 -179 -85 0 -85 0 -25
170 -25 170 -3 -172 -2 -173 -90 0 -90 0 0 490 0 490 124 0 c110 0 125 -2 130
-17z m656 -137 l5 -149 72 152 72 151 95 0 c58 0 96 -4 96 -10 0 -6 -40 -90
-89 -188 l-89 -177 89 -295 c49 -162 89 -299 89 -303 0 -4 -46 -6 -101 -5
l-101 3 -50 165 c-64 216 -57 200 -73 170 -11 -18 -14 -67 -15 -182 l0 -158
-100 0 -100 0 0 483 c0 266 3 487 7 491 4 4 48 5 98 4 l90 -3 5 -149z m-5122
137 c-15 -2 -42 -2 -60 0 -18 2 -6 4 27 4 33 0 48 -2 33 -4z m-120 -120 c-16
-2 -40 -2 -55 0 -16 2 -3 4 27 4 30 0 43 -2 28 -4z m120 0 c-16 -2 -40 -2 -55
0 -16 2 -3 4 27 4 30 0 43 -2 28 -4z m120 0 c-15 -2 -42 -2 -60 0 -18 2 -6 4
27 4 33 0 48 -2 33 -4z m142 -123 c0 -6 -105 -10 -295 -10 -190 0 -295 4 -295
10 0 6 105 10 295 10 190 0 295 -4 295 -10z m-130 -41 c-212 -11 -460 -10
-460 1 0 6 105 9 298 8 251 -1 276 -3 162 -9z m4038 -191 l3 -88 -171 0 -170
0 0 83 c0 46 3 87 7 91 4 3 79 5 167 4 l161 -3 3 -87z m-4022 -244 c9 3 12 1
9 -5 -4 -5 -1 -18 7 -27 12 -15 11 -16 -4 -4 -9 8 -22 11 -28 7 -6 -4 -10 8
-9 32 1 25 3 30 6 15 3 -16 10 -22 19 -18z m-57 -16 c-2 -28 -2 -29 -6 -8 -3
14 -10 28 -17 32 -7 5 -5 8 7 8 13 0 17 -8 16 -32z m147 14 c1 -7 0 -8 -3 -2
-7 15 -23 12 -23 -5 0 -8 -4 -15 -10 -15 -14 0 -13 13 2 28 14 14 31 11 34 -6z
m-247 -9 c1 19 21 24 21 5 0 -9 4 -8 10 2 8 12 10 9 10 -12 0 -29 -14 -38 -23
-15 -4 9 -8 9 -15 -1 -7 -11 -10 -10 -16 3 -9 25 -6 43 4 20 7 -17 9 -17 9 -2z
m76 -23 c3 -5 1 -10 -4 -10 -6 0 -11 5 -11 10 0 6 2 10 4 10 3 0 8 -4 11 -10z
m-215 -85 c0 -8 6 -14 13 -12 7 1 13 -11 15 -32 2 -21 0 -31 -7 -26 -6 3 -12
16 -12 28 -1 20 -2 20 -6 2 -10 -42 -23 -38 -23 8 0 26 5 47 10 47 6 0 10 -7
10 -15z m-56 -31 c-4 -15 -2 -24 5 -24 6 0 11 -4 11 -10 0 -21 -31 -9 -41 17
-12 33 -5 55 16 47 10 -4 13 -14 9 -30z m436 25 c11 -8 12 -12 3 -16 -15 -6
-17 -33 -3 -33 6 0 10 -5 10 -11 0 -23 -34 -2 -41 25 -12 43 0 57 31 35z
m-282 -11 c18 -18 15 -28 -10 -29 -17 -1 -19 -2 -5 -6 25 -7 21 -25 -5 -21
-27 3 -38 46 -16 59 17 12 22 11 36 -3z m161 -10 c4 -11 12 -13 26 -7 19 7 19
8 1 8 -15 1 -17 4 -9 12 19 19 43 2 43 -29 0 -26 -3 -28 -40 -29 -34 -1 -40 2
-41 21 -1 20 -1 20 -7 1 -4 -11 -15 -21 -24 -21 -14 -1 -18 6 -18 32 0 32 2
34 32 30 17 -2 34 -10 37 -18z m201 10 c0 -4 -5 -10 -10 -13 -6 -4 -8 -15 -5
-26 4 -13 2 -19 -9 -19 -11 0 -16 10 -16 33 0 26 4 33 20 33 11 0 20 -4 20 -8z
m-657 -115 c-7 -2 -13 -11 -13 -19 0 -8 6 -14 13 -14 8 0 9 -2 1 -8 -7 -4 -14
-16 -17 -27 -4 -18 -5 -18 -6 3 0 12 -7 22 -13 22 -9 0 -9 3 -2 8 6 4 13 15
17 25 3 9 12 17 19 16 10 0 10 -2 1 -6z m127 -32 c0 -22 5 -42 10 -44 6 -3 5
-4 -2 -3 -14 3 -30 86 -16 86 4 0 8 -18 8 -39z m81 -9 c3 -23 2 -42 -3 -42 -7
0 -11 12 -23 73 -2 11 1 17 8 14 7 -2 15 -22 18 -45z m377 -17 l-1 -30 -4 28
c-5 33 -25 31 -34 -4 -6 -19 -7 -15 -8 18 -1 40 -1 41 24 30 19 -9 25 -19 23
-42z m-84 7 c1 -18 -3 -31 -8 -29 -12 4 -26 53 -18 62 13 13 25 -3 26 -33z
m-419 -2 c0 -18 -6 -26 -21 -28 -23 -3 -37 18 -27 44 10 25 48 13 48 -16z
m213 -3 c3 -22 -1 -27 -18 -27 -23 0 -35 22 -26 46 10 25 41 12 44 -19z m41 6
c1 19 21 24 21 5 0 -9 4 -8 10 2 8 12 10 9 10 -12 0 -16 -4 -28 -10 -28 -5 0
-10 5 -10 11 0 8 -4 9 -13 0 -18 -14 -27 -4 -26 28 l1 26 8 -25 c5 -17 8 -19
9 -7z m320 5 c-1 -17 -2 -19 -6 -5 -2 9 -9 17 -14 17 -15 0 -6 -34 11 -42 11
-5 9 -7 -6 -7 -26 -1 -39 26 -23 45 18 22 39 17 38 -8z m-389 -275 c0 -13 2
-14 17 -2 14 12 14 9 -2 -18 -26 -44 -35 -41 -35 8 0 24 4 38 10 34 6 -3 10
-13 10 -22z m307 -2 c14 12 14 9 -2 -18 -26 -44 -35 -41 -34 10 0 37 1 39 10
18 8 -20 11 -22 26 -10z m-199 -23 c2 -16 -1 -28 -7 -28 -6 0 -11 11 -11 25 0
34 -18 32 -23 -2 -4 -26 -4 -25 -6 5 -1 29 2 33 22 30 16 -2 23 -11 25 -30z
m67 2 c0 -18 -6 -26 -22 -28 -18 -3 -23 1 -23 21 0 28 9 39 30 35 9 -2 15 -14
15 -28z m58 20 c-27 -11 -29 -25 -5 -39 16 -10 16 -10 0 -11 -22 0 -31 15 -23
40 4 12 15 20 28 19 l22 0 -22 -9z m1134 -30 l13 -25 0 28 c0 23 4 27 30 27
l30 0 0 -100 0 -100 25 0 c25 0 25 1 25 78 0 94 15 122 65 122 36 0 65 -21 65
-48 1 -9 7 -2 15 16 12 28 19 32 53 32 47 0 62 -14 62 -57 0 -29 -3 -33 -25
-33 -18 0 -25 5 -25 20 0 11 -4 20 -10 20 -5 0 -10 -11 -10 -25 0 -22 4 -25
35 -25 l35 0 0 -59 c0 -68 -15 -91 -60 -91 -32 0 -60 22 -61 48 0 14 -2 14 -6
2 -17 -46 -81 -68 -111 -38 -9 9 -12 9 -12 0 0 -8 -19 -12 -56 -12 -47 0 -57
3 -61 19 -5 19 -5 19 -24 0 -13 -13 -33 -19 -64 -19 l-45 0 0 126 0 125 52 -3
c44 -3 54 -7 65 -28z m551 14 c20 -14 22 -14 22 0 0 24 205 23 231 0 17 -15
19 -15 34 0 24 24 81 21 99 -5 l14 -21 11 21 c17 30 84 30 105 -1 l16 -22 0
22 c0 19 5 22 35 22 29 0 35 -4 36 -22 l0 -23 10 23 c6 17 15 22 31 20 22 -3
23 -9 28 -93 l5 -90 14 93 14 92 33 0 c29 0 34 -4 39 -32 3 -18 12 -64 19
-103 l14 -70 1 103 c1 102 1 102 26 102 l25 0 0 -100 0 -100 60 0 c58 0 60 -1
60 -25 l0 -26 -112 3 c-109 3 -113 4 -116 26 -2 12 -10 22 -17 22 -7 0 -15
-10 -17 -22 -3 -20 -10 -23 -54 -26 l-51 -3 -14 48 -13 48 -4 -47 c-3 -41 -6
-48 -23 -48 -12 0 -23 8 -26 19 -5 19 -5 19 -24 0 -24 -24 -71 -24 -93 0 -17
19 -18 19 -37 0 -23 -23 -66 -25 -91 -2 -17 15 -18 15 -18 0 0 -22 -46 -23
-54 -1 -3 9 -7 32 -8 52 -1 32 -2 30 -7 -13 l-6 -50 -87 -3 -88 -3 0 67 c0 64
-1 66 -18 51 -10 -10 -26 -17 -35 -17 -12 0 -17 -12 -19 -47 -3 -44 -5 -48
-28 -48 l-25 0 -3 123 -3 122 43 0 c24 0 54 -7 66 -16z m-1538 -33 c0 -6 -4
-13 -10 -16 -5 -3 -10 1 -10 9 0 9 5 16 10 16 6 0 10 -4 10 -9z m17400 -106
c0 -14 -4 -25 -10 -25 -11 0 -14 33 -3 43 11 11 13 8 13 -18z m177 -22 c-3
-10 -5 -2 -5 17 0 19 2 27 5 18 2 -10 2 -26 0 -35z m-427 7 c8 -5 11 -10 5
-10 -5 0 -17 5 -25 10 -8 5 -10 10 -5 10 6 0 17 -5 25 -10z m42 -15 c8 -8 -44
-65 -59 -65 -7 0 -18 10 -24 23 -12 22 -12 22 10 3 21 -19 22 -19 36 0 8 10
15 25 15 32 0 12 12 16 22 7z m-14612 -40 c0 -20 -5 -25 -25 -25 -20 0 -25 5
-25 25 0 20 5 25 25 25 20 0 25 -5 25 -25z m68 3 c-2 -17 -11 -24 -30 -26 -24
-3 -28 0 -28 22 0 22 4 26 31 26 26 0 30 -3 27 -22z m14682 -8 c-8 -5 -19 -10
-25 -10 -5 0 -3 5 5 10 8 5 20 10 25 10 6 0 3 -5 -5 -10z m180 0 c8 -5 11 -10
5 -10 -5 0 -17 5 -25 10 -8 5 -10 10 -5 10 6 0 17 -5 25 -10z m-170 -80 c8 -5
11 -10 5 -10 -5 0 -17 5 -25 10 -8 5 -10 10 -5 10 6 0 17 -5 25 -10z m47 -82
c-3 -7 -5 -2 -5 12 0 14 2 19 5 13 2 -7 2 -19 0 -25z m-724 8 c79 -28 116 -92
117 -195 0 -60 -2 -66 -35 -97 -19 -18 -39 -44 -45 -58 -9 -25 -12 -26 -95
-26 l-85 0 -7 30 c-3 20 -16 36 -33 45 -35 18 -40 32 -40 111 0 75 16 118 57
157 48 45 101 56 166 33z m877 -16 c8 -5 11 -10 5 -10 -5 0 -17 5 -25 10 -8 5
-10 10 -5 10 6 0 17 -5 25 -10z m-384 -51 c19 -22 19 -22 -4 -8 -21 13 -25 12
-43 -10 -24 -29 -25 -18 -1 14 21 30 24 30 48 4z m-36 -59 c8 -5 11 -10 5 -10
-5 0 -17 5 -25 10 -8 5 -10 10 -5 10 6 0 17 -5 25 -10z m30 -90 c-8 -5 -19
-10 -25 -10 -5 0 -3 5 5 10 8 5 20 10 25 10 6 0 3 -5 -5 -10z m237 -92 c-3 -7
-5 -2 -5 12 0 14 2 19 5 13 2 -7 2 -19 0 -25z m190 0 c-3 -7 -5 -2 -5 12 0 14
2 19 5 13 2 -7 2 -19 0 -25z m-427 18 c0 -2 -13 -9 -30 -15 -35 -12 -41 -5 -7
9 25 10 37 12 37 6z m19 -140 c-8 -8 -79 -35 -79 -30 0 6 60 33 74 34 5 0 7
-2 5 -4z m-9 -156 c-8 -5 -19 -10 -25 -10 -5 0 -3 5 5 10 8 5 20 10 25 10 6 0
3 -5 -5 -10z m230 -9 c0 -11 -4 -23 -10 -26 -6 -4 -10 5 -10 19 0 14 5 26 10
26 6 0 10 -9 10 -19z m177 -18 c-3 -10 -5 -4 -5 12 0 17 2 24 5 18 2 -7 2 -21
0 -30z m-447 13 c0 -2 -7 -7 -16 -10 -8 -3 -12 -2 -9 4 6 10 25 14 25 6z
m-17120 -16 c0 -5 -2 -10 -4 -10 -3 0 -8 5 -11 10 -3 6 -1 10 4 10 6 0 11 -4
11 -10z m16647 -75 c24 -48 32 -56 63 -61 84 -13 90 -16 90 -34 0 -10 -19 -34
-41 -53 l-42 -34 11 -59 c5 -32 8 -62 5 -66 -8 -14 -38 -8 -81 17 l-43 25 -49
-25 c-81 -41 -90 -34 -71 62 8 40 6 44 -30 79 -50 49 -51 71 -1 79 77 13 82
15 103 58 43 84 50 85 86 12z m693 25 c-8 -5 -19 -10 -25 -10 -5 0 -3 5 5 10
8 5 20 10 25 10 6 0 3 -5 -5 -10z m-17415 -10 c3 -5 1 -10 -4 -10 -6 0 -11 5
-11 10 0 6 2 10 4 10 3 0 8 -4 11 -10z m17585 0 c8 -5 11 -10 5 -10 -5 0 -17
5 -25 10 -8 5 -10 10 -5 10 6 0 17 -5 25 -10z m-220 -10 c-8 -5 -19 -10 -25
-10 -5 0 -3 5 5 10 8 5 20 10 25 10 6 0 3 -5 -5 -10z m-124 -45 c-11 -8 -25
-15 -30 -15 -6 1 0 7 14 15 32 19 40 18 16 0z m-46 -19 c0 -2 -7 -7 -16 -10
-8 -3 -12 -2 -9 4 6 10 25 14 25 6z m370 -6 c-8 -5 -22 -9 -30 -9 -10 0 -8 3
5 9 27 12 43 12 25 0z m-343 -76 c-5 -5 -57 13 -57 20 0 3 14 0 31 -6 16 -6
28 -12 26 -14z m193 16 c-8 -5 -19 -10 -25 -10 -5 0 -3 5 5 10 8 5 20 10 25
10 6 0 3 -5 -5 -10z m-17493 -22 c-3 -8 -6 -5 -6 6 -1 11 2 17 5 13 3 -3 4
-12 1 -19z m17663 12 c8 -5 11 -10 5 -10 -5 0 -17 5 -25 10 -8 5 -10 10 -5 10
6 0 17 -5 25 -10z m-335 -49 c-13 -12 -85 -42 -85 -35 0 4 77 41 90 43 2 1 0
-3 -5 -8z m215 -26 c0 -8 -4 -17 -10 -20 -6 -4 -10 5 -10 20 0 15 4 24 10 20
6 -3 10 -12 10 -20z m177 -12 c-3 -10 -5 -4 -5 12 0 17 2 24 5 18 2 -7 2 -21
0 -30z m-17720 -75 c-3 -7 -5 -2 -5 12 0 14 2 19 5 13 2 -7 2 -19 0 -25z
m17493 22 c-8 -5 -19 -10 -25 -10 -5 0 -3 5 5 10 8 5 20 10 25 10 6 0 3 -5 -5
-10z m140 0 c8 -5 11 -10 5 -10 -5 0 -17 5 -25 10 -8 5 -10 10 -5 10 6 0 17
-5 25 -10z m-190 -20 c-8 -5 -19 -10 -25 -10 -5 0 -3 5 5 10 8 5 20 10 25 10
6 0 3 -5 -5 -10z m240 0 c8 -5 11 -10 5 -10 -5 0 -17 5 -25 10 -8 5 -10 10 -5
10 6 0 17 -5 25 -10z m-17753 -137 c-2 -21 -4 -6 -4 32 0 39 2 55 4 38 2 -18
2 -50 0 -70z m17392 93 c-8 -8 -79 -35 -79 -30 0 6 60 33 74 34 5 0 7 -2 5 -4z
m371 -5 c-8 -5 -26 -11 -40 -15 -21 -5 -20 -3 5 9 32 15 60 20 35 6z m-180
-71 c-8 -5 -19 -10 -25 -10 -5 0 -3 5 5 10 8 5 20 10 25 10 6 0 3 -5 -5 -10z
m100 0 c8 -5 11 -10 5 -10 -5 0 -17 5 -25 10 -8 5 -10 10 -5 10 6 0 17 -5 25
-10z m-17820 -9 c0 -6 -4 -13 -10 -16 -5 -3 -10 1 -10 9 0 9 5 16 10 16 6 0
10 -4 10 -9z m70 -1 c0 -5 -4 -10 -10 -10 -5 0 -10 5 -10 10 0 6 5 10 10 10 6
0 10 -4 10 -10z m17456 -27 c-5 -5 -76 24 -76 31 0 2 18 -3 40 -11 22 -9 38
-18 36 -20z m371 1 c-5 -5 -57 13 -57 20 0 3 14 0 31 -6 16 -6 28 -12 26 -14z
m-247 6 c-8 -5 -22 -9 -30 -9 -10 0 -8 3 5 9 27 12 43 12 25 0z m-121 -44 c-8
-8 -79 -35 -79 -30 0 6 60 33 74 34 5 0 7 -2 5 -4z m208 -33 c-3 -10 -5 -4 -5
12 0 17 2 24 5 18 2 -7 2 -21 0 -30z m190 0 c-3 -10 -5 -4 -5 12 0 17 2 24 5
18 2 -7 2 -21 0 -30z m-17932 -3 c3 -5 1 -10 -4 -10 -6 0 -11 5 -11 10 0 6 2
10 4 10 3 0 8 -4 11 -10z m17690 -55 c-27 -13 -54 -24 -60 -24 -5 1 13 11 40
24 28 13 55 24 60 24 6 -1 -12 -11 -40 -24z m205 -17 c10 -6 7 -7 -10 -2 -14
3 -32 11 -40 16 -10 6 -7 7 10 2 14 -3 32 -11 40 -16z m-17820 -48 c0 -5 -4
-10 -10 -10 -5 0 -10 5 -10 10 0 6 5 10 10 10 6 0 10 -4 10 -10z m17450 0 c-8
-5 -19 -10 -25 -10 -5 0 -3 5 5 10 8 5 20 10 25 10 6 0 3 -5 -5 -10z m-40 -14
c0 -2 -7 -7 -16 -10 -8 -3 -12 -2 -9 4 6 10 25 14 25 6z m350 -10 c0 -2 -7 -7
-16 -10 -8 -3 -12 -2 -9 4 6 10 25 14 25 6z m-121 -50 c-2 -2 -29 -14 -59 -26
-30 -12 -51 -18 -47 -13 5 4 27 16 50 25 41 16 65 22 56 14z m-205 -21 c20 -8
36 -17 36 -20 0 -4 -80 24 -89 32 -11 8 20 1 53 -12z m356 5 c8 -5 11 -10 5
-10 -5 0 -17 5 -25 10 -8 5 -10 10 -5 10 6 0 17 -5 25 -10z m-340 -60 c-8 -5
-19 -10 -25 -10 -5 0 -3 5 5 10 8 5 20 10 25 10 6 0 3 -5 -5 -10z m217 -27
c-3 -10 -5 -4 -5 12 0 17 2 24 5 18 2 -7 2 -21 0 -30z m190 -5 c-3 -7 -5 -2
-5 12 0 14 2 19 5 13 2 -7 2 -19 0 -25z m-447 18 c0 -2 -7 -7 -16 -10 -8 -3
-12 -2 -9 4 6 10 25 14 25 6z m-17120 -56 c0 -5 -4 -10 -10 -10 -5 0 -10 5
-10 10 0 6 5 10 10 10 6 0 10 -4 10 -10z m17360 5 c0 -3 -10 -9 -22 -14 -13
-5 -41 -17 -63 -26 -22 -9 -36 -13 -32 -9 6 6 103 52 115 54 1 0 2 -2 2 -5z
m114 -14 c4 -5 -3 -7 -14 -4 -23 6 -26 13 -6 13 8 0 17 -4 20 -9z m51 -21 c13
-6 15 -9 5 -9 -8 0 -22 4 -30 9 -18 12 -2 12 25 0z m-356 -45 c-9 -8 -79 -35
-79 -30 0 3 15 11 33 19 32 15 54 20 46 11z m291 -35 c-8 -5 -19 -10 -25 -10
-5 0 -3 5 5 10 8 5 20 10 25 10 6 0 3 -5 -5 -10z m-105 -40 c-3 -5 -12 -10
-18 -10 -7 0 -6 4 3 10 19 12 23 12 15 0z m100 -8 c-3 -3 -11 0 -18 7 -9 10
-8 11 6 5 10 -3 15 -9 12 -12z m-305 -24 c10 -6 7 -7 -10 -2 -14 3 -32 11 -40
16 -10 6 -7 7 10 2 14 -3 32 -11 40 -16z m150 7 c-14 -8 -32 -14 -40 -14 -8 0
-1 7 15 14 39 18 57 18 25 0z m220 -5 c8 -5 11 -10 5 -10 -5 0 -17 5 -25 10
-8 5 -10 10 -5 10 6 0 17 -5 25 -10z m-351 -45 c-9 -8 -79 -35 -79 -30 0 3 15
11 33 19 32 15 54 20 46 11z m388 -32 c-3 -10 -5 -4 -5 12 0 17 2 24 5 18 2
-7 2 -21 0 -30z m-202 -42 c-6 -5 -34 -19 -64 -30 -30 -11 -50 -16 -45 -11 5
5 32 18 59 28 61 24 61 24 50 13z m175 -36 c14 -8 21 -14 15 -14 -5 0 -21 6
-35 14 -14 8 -20 14 -15 14 6 0 21 -6 35 -14z m-370 -45 c-8 -5 -19 -10 -25
-10 -5 0 -3 5 5 10 8 5 20 10 25 10 6 0 3 -5 -5 -10z m375 0 c-3 -5 -12 -10
-18 -10 -7 0 -6 4 3 10 19 12 23 12 15 0z m-415 -14 c0 -2 -7 -7 -16 -10 -8
-3 -12 -2 -9 4 6 10 25 14 25 6z m370 -5 c-8 -5 -26 -11 -40 -15 -21 -5 -20
-3 5 9 32 15 60 20 35 6z m-130 -46 c0 -5 -69 -35 -79 -34 -5 0 68 38 77 39 1
0 2 -2 2 -5z m110 -15 c18 -12 2 -12 -25 0 -13 6 -15 9 -5 9 8 0 22 -4 30 -9z
m-350 -10 c8 -5 11 -10 5 -10 -5 0 -17 5 -25 10 -8 5 -10 10 -5 10 6 0 17 -5
25 -10z m45 -20 c3 -6 -1 -7 -9 -4 -18 7 -21 14 -7 14 6 0 13 -4 16 -10z m95
0 c-8 -5 -19 -10 -25 -10 -5 0 -3 5 5 10 8 5 20 10 25 10 6 0 3 -5 -5 -10z
m280 0 c8 -5 11 -10 5 -10 -5 0 -17 5 -25 10 -8 5 -10 10 -5 10 6 0 17 -5 25
-10z m-380 -40 c-8 -5 -19 -10 -25 -10 -5 0 -3 5 5 10 8 5 20 10 25 10 6 0 3
-5 -5 -10z m207 -27 c-3 -10 -5 -4 -5 12 0 17 2 24 5 18 2 -7 2 -21 0 -30z
m190 -10 c-3 -10 -5 -2 -5 17 0 19 2 27 5 18 2 -10 2 -26 0 -35z m-437 23 c0
-2 -7 -7 -16 -10 -8 -3 -12 -2 -9 4 6 10 25 14 25 6z m235 -54 c-14 -12 -117
-53 -122 -48 -2 2 24 15 59 29 70 29 76 31 63 19z m139 -22 c46 -21 65 -37 24
-21 -55 22 -92 40 -82 41 6 0 32 -9 58 -20z m-325 -55 c-9 -8 -79 -35 -79 -30
0 3 15 11 33 19 32 15 54 20 46 11z m366 -5 c-3 -5 -12 -10 -18 -10 -7 0 -6 4
3 10 19 12 23 12 15 0z m-45 -19 c-8 -5 -26 -11 -40 -15 -21 -5 -20 -3 5 9 32
15 60 20 35 6z m-135 -51 c-3 -5 -12 -10 -18 -10 -7 0 -6 4 3 10 19 12 23 12
15 0z m-70 -30 c-22 -10 -44 -18 -50 -18 -5 0 8 8 30 19 22 10 45 18 50 18 6
0 -8 -9 -30 -19z m-145 0 c8 -5 11 -10 5 -10 -5 0 -17 5 -25 10 -8 5 -10 10
-5 10 6 0 17 -5 25 -10z m29 -45 c-9 -8 -79 -35 -79 -30 0 3 15 11 33 19 32
15 54 20 46 11z m154 -29 c20 -9 37 -18 37 -21 0 -7 -103 35 -115 46 -10 11 6
5 78 -25z m44 -248 c-1 -40 -3 -10 -3 67 0 77 1 110 3 73 2 -37 2 -100 0 -140z
m113 186 c23 -9 39 -18 37 -20 -2 -3 -24 4 -48 15 -54 24 -45 27 11 5z m-320
-64 c-8 -5 -19 -10 -25 -10 -5 0 -3 5 5 10 8 5 20 10 25 10 6 0 3 -5 -5 -10z
m397 -142 c-2 -29 -3 -6 -3 52 0 58 1 81 3 53 2 -29 2 -77 0 -105z m-437 128
c0 -2 -7 -7 -16 -10 -8 -3 -12 -2 -9 4 6 10 25 14 25 6z m40 -96 c8 -5 11 -10
5 -10 -5 0 -17 5 -25 10 -8 5 -10 10 -5 10 6 0 17 -5 25 -10z m0 -40 c-8 -5
-19 -10 -25 -10 -5 0 -3 5 5 10 8 5 20 10 25 10 6 0 3 -5 -5 -10z m-40 -14 c0
-2 -7 -7 -16 -10 -8 -3 -12 -2 -9 4 6 10 25 14 25 6z m365 -77 c31 -12 55 -23
53 -25 -4 -3 -109 34 -117 42 -9 8 10 3 64 -17z m-175 2 c-8 -5 -26 -11 -40
-15 -21 -5 -20 -3 5 9 32 15 60 20 35 6z m165 -86 c-27 -13 -54 -24 -60 -24
-5 0 13 11 40 25 28 13 55 23 60 23 6 0 -12 -11 -40 -24z m-355 11 c0 -2 -7
-7 -16 -10 -8 -3 -12 -2 -9 4 6 10 25 14 25 6z m350 -72 c23 -9 39 -18 37 -20
-2 -3 -24 4 -48 15 -54 24 -45 27 11 5z m-160 -4 c-8 -5 -19 -10 -25 -10 -5 0
-3 5 5 10 8 5 20 10 25 10 6 0 3 -5 -5 -10z m-170 -20 c8 -5 11 -10 5 -10 -5
0 -17 5 -25 10 -8 5 -10 10 -5 10 6 0 17 -5 25 -10z m-25 -58 c-3 -3 -11 0
-18 7 -9 10 -8 11 6 5 10 -3 15 -9 12 -12z m62 -144 c-2 -18 -4 -4 -4 32 0 36
2 50 4 33 2 -18 2 -48 0 -65z m180 -60 c-2 -29 -3 -8 -3 47 0 55 1 79 3 53 2
-26 2 -71 0 -100z m190 -11 c-2 -23 -3 -1 -3 48 0 50 1 68 3 42 2 -26 2 -67 0
-90z m-9080 -39 l83 -83 83 83 c46 46 91 82 102 82 23 0 75 -48 75 -70 0 -8
-56 -71 -124 -139 -105 -105 -128 -123 -148 -118 -31 8 -248 229 -248 252 0
26 49 75 74 75 12 0 54 -33 103 -82z m9017 -48 c25 -10 46 -22 46 -24 0 -5
-91 31 -99 40 -9 8 8 4 53 -16z m-184 1 c-8 -5 -26 -11 -40 -15 -21 -5 -20 -3
5 9 32 15 60 20 35 6z m225 -60 c-6 -5 -21 -11 -35 -15 -21 -5 -20 -3 5 9 35
17 42 18 30 6z m-385 -18 c-8 -3 -24 -10 -35 -15 -20 -9 -20 -9 -1 6 11 9 27
16 35 15 14 0 14 -1 1 -6z m310 -13 c-8 -5 -19 -10 -25 -10 -5 0 -3 5 5 10 8
5 20 10 25 10 6 0 3 -5 -5 -10z m-320 -50 c13 -9 13 -10 0 -10 -8 0 -22 5 -30
10 -13 9 -13 10 0 10 8 0 22 -5 30 -10z m151 -16 c-29 -13 -56 -24 -60 -23 -9
1 93 49 104 48 6 0 -14 -11 -44 -25z m-8814 -106 l83 -83 83 83 c46 46 91 82
102 82 25 0 75 -49 75 -73 0 -12 -47 -68 -117 -139 -88 -89 -123 -118 -142
-118 -19 0 -55 29 -143 117 -71 70 -118 126 -118 137 0 26 49 76 74 76 12 0
54 -33 103 -82z m9050 -310 c-3 -7 -5 -2 -5 12 0 14 2 19 5 13 2 -7 2 -19 0
-25z m90 -135 c-3 -10 -5 -4 -5 12 0 17 2 24 5 18 2 -7 2 -21 0 -30z m60 0
c-3 -10 -5 -4 -5 12 0 17 2 24 5 18 2 -7 2 -21 0 -30z m-247 11 c0 -2 -18 -4
-40 -4 -22 0 -40 3 -40 8 0 4 18 6 40 4 22 -2 40 -6 40 -8z m97 -6 c-3 -8 -6
-5 -6 6 -1 11 2 17 5 13 3 -3 4 -12 1 -19z m380 -135 c-3 -10 -5 -4 -5 12 0
17 2 24 5 18 2 -7 2 -21 0 -30z m-12200 -75 c-3 -7 -5 -2 -5 12 0 14 2 19 5
13 2 -7 2 -19 0 -25z m180 10 c-3 -8 -6 -5 -6 6 -1 11 2 17 5 13 3 -3 4 -12 1
-19z m-1442 -35 c-15 -36 -17 -61 -6 -82 13 -23 2 -28 -17 -9 -15 15 -16 63
-2 89 13 24 35 26 25 2z m80 0 c-15 -37 -17 -64 -5 -78 17 -20 5 -32 -15 -15
-17 14 -20 62 -5 91 13 24 35 26 25 2z m-625 2 c0 -3 -12 -29 -27 -58 -17 -34
-28 -46 -31 -35 -4 20 34 98 48 98 6 0 10 -2 10 -5z m300 -45 c31 -66 19 -76
-14 -11 -28 55 -30 61 -18 61 5 0 19 -22 32 -50z m590 45 c0 -15 -52 -105 -60
-105 -14 0 -13 5 15 60 14 28 30 50 35 50 6 0 10 -2 10 -5z m218 -40 c24 -49
28 -70 12 -60 -12 7 -50 79 -50 95 0 23 17 7 38 -35z m11099 -2 c-3 -10 -5 -4
-5 12 0 17 2 24 5 18 2 -7 2 -21 0 -30z m110 0 c-3 -10 -5 -4 -5 12 0 17 2 24
5 18 2 -7 2 -21 0 -30z m60 0 c-3 -10 -5 -4 -5 12 0 17 2 24 5 18 2 -7 2 -21
0 -30z m90 5 c-3 -7 -5 -2 -5 12 0 14 2 19 5 13 2 -7 2 -19 0 -25z m390 -5
c-3 -10 -5 -4 -5 12 0 17 2 24 5 18 2 -7 2 -21 0 -30z m150 0 c-3 -10 -5 -4
-5 12 0 17 2 24 5 18 2 -7 2 -21 0 -30z m20 5 c-3 -7 -5 -2 -5 12 0 14 2 19 5
13 2 -7 2 -19 0 -25z m40 0 c-3 -7 -5 -2 -5 12 0 14 2 19 5 13 2 -7 2 -19 0
-25z m50 -5 c-3 -10 -5 -4 -5 12 0 17 2 24 5 18 2 -7 2 -21 0 -30z m-3562 17
c3 -5 1 -10 -4 -10 -6 0 -11 5 -11 10 0 6 2 10 4 10 3 0 8 -4 11 -10z m2965 0
c0 -5 -5 -10 -11 -10 -5 0 -7 5 -4 10 3 6 8 10 11 10 2 0 4 -4 4 -10z m447
-12 c-3 -8 -6 -5 -6 6 -1 11 2 17 5 13 3 -3 4 -12 1 -19z m-12247 -18 c0 -14
-7 -20 -24 -20 -15 0 -26 7 -29 20 -4 17 0 20 24 20 22 0 29 -5 29 -20z m1433
13 c-24 -2 -62 -2 -85 0 -24 2 -5 4 42 4 47 0 66 -2 43 -4z m-1753 -13 c0 -5
-11 -10 -25 -10 -14 0 -25 5 -25 10 0 6 11 10 25 10 14 0 25 -4 25 -10z m400
0 c0 -5 -11 -10 -25 -10 -14 0 -25 5 -25 10 0 6 11 10 25 10 14 0 25 -4 25
-10z m1378 -197 c0 -82 -3 -132 -5 -113 -6 43 -15 49 -78 52 l-50 1 60 6 60 6
3 98 c4 151 12 114 10 -50z m10230 86 c-3 -20 -5 -19 -9 9 -3 20 -2 29 4 23 5
-5 7 -19 5 -32z m-201 -6 c-3 -10 -5 -4 -5 12 0 17 2 24 5 18 2 -7 2 -21 0
-30z m850 0 c-3 -10 -5 -4 -5 12 0 17 2 24 5 18 2 -7 2 -21 0 -30z m-3140 5
c-3 -8 -6 -5 -6 6 -1 11 2 17 5 13 3 -3 4 -12 1 -19z m830 -10 c-3 -7 -5 -2
-5 12 0 14 2 19 5 13 2 -7 2 -19 0 -25z m890 0 c-3 -7 -5 -2 -5 12 0 14 2 19
5 13 2 -7 2 -19 0 -25z m1220 0 c-3 -7 -5 -2 -5 12 0 14 2 19 5 13 2 -7 2 -19
0 -25z m-12882 -28 c27 -54 29 -60 17 -60 -4 0 -20 25 -35 55 -15 30 -22 55
-17 55 5 0 21 -22 35 -50z m650 0 c28 -55 29 -60 15 -60 -5 0 -21 22 -35 50
-28 55 -29 60 -15 60 5 0 21 -22 35 -50z m505 39 c0 -16 -52 -101 -58 -94 -7
7 39 105 50 105 4 0 8 -5 8 -11z m9497 -166 c-2 -21 -4 -6 -4 32 0 39 2 55 4
38 2 -18 2 -50 0 -70z m2610 20 c-3 -10 -5 -4 -5 12 0 17 2 24 5 18 2 -7 2
-21 0 -30z m-3032 17 c3 -5 1 -10 -4 -10 -6 0 -11 5 -11 10 0 6 2 10 4 10 3 0
8 -4 11 -10z m-10072 -58 c-3 -26 -11 -42 -19 -42 -19 0 -18 40 2 68 21 30 24
26 17 -26z m821 16 c14 -32 11 -58 -5 -58 -5 0 -9 10 -9 23 0 12 -4 29 -9 37
-9 13 -6 30 5 30 3 0 11 -14 18 -32z m876 22 c0 -6 -33 -10 -79 -10 -44 0 -83
5 -86 10 -4 6 25 10 79 10 51 0 86 -4 86 -10z m175 0 c-3 -5 -39 -10 -80 -10
-41 0 -77 5 -80 10 -4 6 25 10 80 10 55 0 84 -4 80 -10z m-1377 -12 c16 -16
16 -68 0 -68 -7 0 -13 10 -14 23 0 12 -4 30 -8 40 -9 20 4 23 22 5z m80 0 c13
-13 17 -68 4 -68 -4 0 -13 18 -19 40 -10 41 -6 49 15 28z m-633 -48 c4 -6 -7
-10 -24 -10 -17 0 -31 5 -31 10 0 6 11 10 24 10 14 0 28 -4 31 -10z m970 0 c4
-6 -7 -10 -25 -10 -18 0 -29 4 -25 10 3 6 15 10 25 10 10 0 22 -4 25 -10z"/>
<path d="M17542 8978 c-9 -9 -12 -76 -12 -238 0 -162 3 -229 12 -238 17 -17
569 -17 586 0 17 17 17 459 0 476 -9 9 -88 12 -293 12 -205 0 -284 -3 -293
-12z m388 -178 c0 -6 -40 -10 -100 -10 -60 0 -100 4 -100 10 0 6 40 10 100 10
60 0 100 -4 100 -10z m0 -60 c0 -6 -40 -10 -100 -10 -60 0 -100 4 -100 10 0 6
40 10 100 10 60 0 100 -4 100 -10z m0 -60 c0 -6 -40 -10 -100 -10 -60 0 -100
4 -100 10 0 6 40 10 100 10 60 0 100 -4 100 -10z"/>
<path d="M910 8755 c0 -57 4 -95 10 -95 6 0 10 38 10 95 0 57 -4 95 -10 95 -6
0 -10 -38 -10 -95z"/>
<path d="M1320 8820 c0 -16 5 -30 10 -30 6 0 10 14 10 30 0 17 -4 30 -10 30
-5 0 -10 -13 -10 -30z"/>
<path d="M1156 8735 c-3 -8 -1 -15 4 -15 6 0 10 7 10 15 0 8 -2 15 -4 15 -2 0
-6 -7 -10 -15z"/>
<path d="M1570 8755 c0 -57 4 -95 10 -95 6 0 10 38 10 95 0 57 -4 95 -10 95
-6 0 -10 -38 -10 -95z"/>
<path d="M4160 6170 c-13 -8 -15 -55 -18 -304 -3 -286 -2 -296 18 -316 24 -24
43 -25 64 -4 14 13 16 55 16 309 0 254 -2 296 -16 309 -17 18 -42 20 -64 6z"/>
<path d="M2030 5855 l0 -305 40 0 c34 0 42 4 50 26 6 14 10 138 10 279 0 141
-4 265 -10 279 -8 22 -16 26 -50 26 l-40 0 0 -305z"/>
<path d="M2857 5940 c-9 -37 -27 -165 -27 -194 0 -23 4 -26 35 -26 35 0 35 0
29 38 -3 20 -11 75 -18 122 -9 60 -15 78 -19 60z"/>
<path d="M3360 6055 l0 -105 35 0 c44 0 55 20 55 105 0 85 -11 105 -55 105
l-35 0 0 -105z"/>
<path d="M334 5319 c-10 -17 13 -36 27 -22 12 12 4 33 -11 33 -5 0 -12 -5 -16
-11z"/>
<path d="M557 5323 c-13 -12 -7 -33 8 -33 8 0 15 9 15 20 0 20 -11 26 -23 13z"/>
<path d="M700 5021 c0 -12 6 -21 16 -21 9 0 14 7 12 17 -5 25 -28 28 -28 4z"/>
<path d="M1860 4970 c0 -11 5 -20 10 -20 6 0 10 9 10 20 0 11 -4 20 -10 20 -5
0 -10 -9 -10 -20z"/>
<path d="M2110 4915 c0 -43 4 -75 10 -75 6 0 10 32 10 75 0 43 -4 75 -10 75
-6 0 -10 -32 -10 -75z"/>
<path d="M1927 4941 c-2 -10 -1 -25 4 -32 6 -10 9 -4 9 19 0 36 -5 42 -13 13z"/>
<path d="M1860 4871 c0 -17 5 -31 10 -31 6 0 10 11 10 24 0 14 -4 28 -10 31
-6 4 -10 -7 -10 -24z"/>
<path d="M2240 4865 c0 -14 5 -25 10 -25 6 0 10 11 10 25 0 14 -4 25 -10 25
-5 0 -10 -11 -10 -25z"/>
<path d="M2432 4965 c0 -16 2 -22 5 -12 2 9 2 23 0 30 -3 6 -5 -1 -5 -18z"/>
<path d="M2550 4971 c0 -14 8 -21 28 -23 19 -2 28 -9 30 -25 3 -20 -1 -23 -27
-23 -28 0 -31 -3 -31 -30 0 -28 3 -30 35 -30 l35 0 0 75 0 75 -35 0 c-28 0
-35 -4 -35 -19z"/>
<path d="M2682 4965 c0 -16 2 -22 5 -12 2 9 2 23 0 30 -3 6 -5 -1 -5 -18z"/>
<path d="M2800 4981 c0 -5 18 -29 40 -52 l40 -43 0 37 c0 34 -2 37 -30 37 -20
0 -30 5 -30 15 0 8 -4 15 -10 15 -5 0 -10 -4 -10 -9z"/>
<path d="M2930 4915 c0 -43 4 -75 10 -75 6 0 10 32 10 75 0 43 -4 75 -10 75
-6 0 -10 -32 -10 -75z"/>
<path d="M2744 4939 c-3 -6 -3 -21 0 -35 5 -17 13 -24 31 -24 18 0 25 -5 25
-20 0 -11 5 -20 10 -20 6 0 10 7 10 16 0 22 -68 96 -76 83z"/>
<path d="M17482 4622 c-55 -30 -72 -66 -72 -152 0 -74 1 -76 30 -94 20 -11 33
-29 37 -48 5 -27 8 -29 18 -14 16 21 25 20 25 -1 1 -17 1 -17 11 0 5 9 14 17
19 17 6 0 10 -8 10 -17 1 -17 1 -17 11 0 12 21 29 22 29 1 0 -8 5 -12 10 -9 6
3 10 15 10 25 0 10 16 31 35 46 34 25 35 29 35 93 0 48 -5 75 -20 99 -41 67
-120 90 -188 54z m19 -132 c37 -20 18 -80 -26 -80 -42 0 -59 44 -29 74 18 19
28 20 55 6z m154 -15 c20 -31 2 -65 -34 -65 -42 0 -59 32 -36 66 19 30 51 29
70 -1z m-91 -71 c16 -43 0 -66 -32 -46 -9 7 -10 15 -3 35 12 30 26 35 35 11z"/>
<path d="M17460 4456 c0 -21 21 -31 30 -15 5 7 6 17 4 21 -9 14 -34 9 -34 -6z"/>
<path d="M17604 4459 c-10 -17 13 -36 27 -22 12 12 4 33 -11 33 -5 0 -12 -5
-16 -11z"/>
<path d="M17525 3921 c-13 -29 -26 -43 -44 -47 -14 -3 -37 -7 -50 -10 l-24 -5
35 -37 c32 -34 34 -40 27 -77 -4 -22 -6 -41 -4 -43 2 -2 20 5 42 16 37 20 39
20 73 1 54 -28 59 -25 49 28 -9 46 -8 47 27 76 40 33 33 47 -24 47 -26 0 -36
6 -50 31 -36 64 -37 64 -57 20z"/>
</g>
</svg>
